<mxfile host="app.diagrams.net" modified="2023-12-30T03:34:30.867Z" agent="Mozilla/5.0 (Windows NT 10.0; Win64; x64) AppleWebKit/537.36 (KHTML, like Gecko) Chrome/120.0.0.0 Safari/537.36" etag="wPuT9DCw0yeOeBRgKtFX" version="22.1.16" type="github">
  <diagram name="第 1 页" id="5okmlQeh2HD7aVh1Iizo">
    <mxGraphModel dx="1877" dy="530" grid="1" gridSize="10" guides="1" tooltips="1" connect="1" arrows="1" fold="1" page="1" pageScale="1" pageWidth="827" pageHeight="1169" math="0" shadow="0">
      <root>
        <mxCell id="0" />
        <mxCell id="1" parent="0" />
        <mxCell id="7GxyuCLlN3Ax3XJjULRu-3" style="edgeStyle=orthogonalEdgeStyle;rounded=0;orthogonalLoop=1;jettySize=auto;html=1;" edge="1" parent="1" source="7GxyuCLlN3Ax3XJjULRu-1">
          <mxGeometry relative="1" as="geometry">
            <mxPoint x="260" y="100" as="targetPoint" />
          </mxGeometry>
        </mxCell>
        <mxCell id="7GxyuCLlN3Ax3XJjULRu-1" value="ConfigurationClassPostProcessor" style="rounded=0;whiteSpace=wrap;html=1;" vertex="1" parent="1">
          <mxGeometry y="70" width="220" height="60" as="geometry" />
        </mxCell>
        <mxCell id="7GxyuCLlN3Ax3XJjULRu-5" style="edgeStyle=orthogonalEdgeStyle;rounded=0;orthogonalLoop=1;jettySize=auto;html=1;" edge="1" parent="1" source="7GxyuCLlN3Ax3XJjULRu-4">
          <mxGeometry relative="1" as="geometry">
            <mxPoint x="440" y="100" as="targetPoint" />
          </mxGeometry>
        </mxCell>
        <mxCell id="7GxyuCLlN3Ax3XJjULRu-4" value="postProcessBeanFactory" style="rounded=0;whiteSpace=wrap;html=1;" vertex="1" parent="1">
          <mxGeometry x="260" y="70" width="140" height="60" as="geometry" />
        </mxCell>
        <mxCell id="7GxyuCLlN3Ax3XJjULRu-7" style="edgeStyle=orthogonalEdgeStyle;rounded=0;orthogonalLoop=1;jettySize=auto;html=1;" edge="1" parent="1" source="7GxyuCLlN3Ax3XJjULRu-6">
          <mxGeometry relative="1" as="geometry">
            <mxPoint x="650" y="100" as="targetPoint" />
          </mxGeometry>
        </mxCell>
        <mxCell id="7GxyuCLlN3Ax3XJjULRu-6" value="processConfigBeanDefinitions扫描bean 转换成beanDefinition" style="rounded=0;whiteSpace=wrap;html=1;" vertex="1" parent="1">
          <mxGeometry x="440" y="70" width="170" height="60" as="geometry" />
        </mxCell>
        <mxCell id="7GxyuCLlN3Ax3XJjULRu-15" style="edgeStyle=orthogonalEdgeStyle;rounded=0;orthogonalLoop=1;jettySize=auto;html=1;entryX=0;entryY=0.5;entryDx=0;entryDy=0;" edge="1" parent="1" source="7GxyuCLlN3Ax3XJjULRu-8" target="7GxyuCLlN3Ax3XJjULRu-10">
          <mxGeometry relative="1" as="geometry">
            <Array as="points">
              <mxPoint x="710" y="150" />
              <mxPoint x="-20" y="150" />
              <mxPoint x="-20" y="200" />
            </Array>
          </mxGeometry>
        </mxCell>
        <mxCell id="7GxyuCLlN3Ax3XJjULRu-8" value="Configuration&lt;br&gt;ClassParser" style="rounded=0;whiteSpace=wrap;html=1;" vertex="1" parent="1">
          <mxGeometry x="650" y="70" width="120" height="60" as="geometry" />
        </mxCell>
        <mxCell id="7GxyuCLlN3Ax3XJjULRu-16" style="edgeStyle=orthogonalEdgeStyle;rounded=0;orthogonalLoop=1;jettySize=auto;html=1;exitX=1;exitY=0.5;exitDx=0;exitDy=0;entryX=0;entryY=0.5;entryDx=0;entryDy=0;" edge="1" parent="1" source="7GxyuCLlN3Ax3XJjULRu-10" target="7GxyuCLlN3Ax3XJjULRu-11">
          <mxGeometry relative="1" as="geometry" />
        </mxCell>
        <mxCell id="7GxyuCLlN3Ax3XJjULRu-10" value="parser.parse(candidates);" style="rounded=0;whiteSpace=wrap;html=1;" vertex="1" parent="1">
          <mxGeometry y="170" width="140" height="60" as="geometry" />
        </mxCell>
        <mxCell id="7GxyuCLlN3Ax3XJjULRu-11" value="processConfigurationClass(new ConfigurationClass(metadata, beanName));" style="rounded=0;whiteSpace=wrap;html=1;" vertex="1" parent="1">
          <mxGeometry x="180" y="170" width="180" height="60" as="geometry" />
        </mxCell>
      </root>
    </mxGraphModel>
  </diagram>
</mxfile>
